arm26_states
version=1
nRows=38
nColumns=17
inDegrees=yes

# SIMM Motion File Header:
name arm26_states
datacolumns 17
datarows 38
otherdata 1
range 0.24840135 0.36708479
endheader
time	r_shoulder_elev	r_elbow_flex	r_shoulder_elev_u	r_elbow_flex_u	TRIlong.activation	TRIlong.fiber_length	TRIlat.activation	TRIlat.fiber_length	TRImed.activation	TRImed.fiber_length	BIClong.activation	BIClong.fiber_length	BICshort.activation	BICshort.fiber_length	BRA.activation	BRA.fiber_length
      0.24840135	    -10.14629591	     47.50254881	    -34.72435841	    232.70483880	      0.00002152	      0.14890049	      0.00869687	      0.08930551	      0.00869687	      0.08430308	      0.10242883	      0.13378690	      0.02263345	      0.13156900	      0.00209422	      0.08247757
      0.25070281	    -10.22502068	     48.03503869	    -33.68833334	    230.03066179	      0.00002140	      0.14905461	      0.00882824	      0.08950777	      0.00882824	      0.08450580	      0.10282824	      0.13349742	      0.02264634	      0.13127131	      0.00201998	      0.08235612
      0.25300426	    -10.30135764	     48.56132746	    -32.64937944	    227.31626545	      0.00002129	      0.14920793	      0.00896510	      0.08970899	      0.00896510	      0.08470693	      0.10321546	      0.13320824	      0.02265775	      0.13097439	      0.00194947	      0.08223524
      0.25763718	    -10.44777033	     49.60162433	    -30.55508370	    221.74801538	      0.00002106	      0.14951303	      0.00925249	      0.09010601	      0.00925249	      0.08510389	      0.10396117	      0.13262760	      0.02267526	      0.13037962	      0.00181791	      0.08199288
      0.25960952	    -10.50715731	     50.03661859	    -29.66483634	    219.34340239	      0.00002096	      0.14964033	      0.00937840	      0.09026906	      0.00937840	      0.08526686	      0.10426679	      0.13238121	      0.02268061	      0.13012768	      0.00176586	      0.08188910
      0.26224318	    -10.58371893	     50.61002652	    -28.47629908	    216.09574469	      0.00002084	      0.14980928	      0.00954886	      0.09048548	      0.00954886	      0.08548330	      0.10465709	      0.13205317	      0.02268364	      0.12979275	      0.00170014	      0.08175127
      0.26870969	    -10.75846040	     51.98129395	    -25.56984680	    207.97207512	      0.00002055	      0.15022086	      0.00997455	      0.09101099	      0.00997455	      0.08600621	      0.10554803	      0.13125364	      0.02268152	      0.12897907	      0.00155545	      0.08141857
      0.27010650	    -10.79374511	     52.27056850	    -24.95103500	    206.21527325	      0.00002049	      0.15030366	      0.01006656	      0.09110961	      0.01006656	      0.08610692	      0.10572627	      0.13108219	      0.02267989	      0.12880468	      0.00152686	      0.08134413
      0.27185549	    -10.83670427	     52.62929147	    -24.17384832	    203.98763732	      0.00002042	      0.15040985	      0.01018148	      0.09124160	      0.01018148	      0.08623936	      0.10594241	      0.13086825	      0.02267718	      0.12858735	      0.00149222	      0.08125295
      0.27447088	    -10.89841426	     53.15842054	    -23.01752088	    200.63719758	      0.00002031	      0.15056837	      0.01035283	      0.09143818	      0.01035283	      0.08643602	      0.10625355	      0.13054995	      0.02267181	      0.12826448	      0.00144271	      0.08111835
      0.27853465	    -10.98833063	     53.96313621	    -21.23845699	    195.39900792	      0.00002015	      0.15081139	      0.01061758	      0.09173720	      0.01061758	      0.08673469	      0.10670436	      0.13005956	      0.02265982	      0.12776801	      0.00137130	      0.08091150
      0.28074028	    -11.03412081	     54.39096953	    -20.28417873	    192.54730265	      0.00002006	      0.15094087	      0.01076040	      0.09189358	      0.01076040	      0.08689149	      0.10693123	      0.12979571	      0.02265121	      0.12750130	      0.00133537	      0.08080000
      0.28344668	    -11.08744428	     54.90733166	    -19.12298622	    189.03545019	      0.00001996	      0.15109810	      0.01093502	      0.09208419	      0.01093502	      0.08708204	      0.10719665	      0.12947432	      0.02263875	      0.12717686	      0.00129381	      0.08066429
      0.28644523	    -11.14287669	     55.46832483	    -17.85341371	    185.14235098	      0.00001986	      0.15126984	      0.01112683	      0.09228862	      0.01112683	      0.08728640	      0.10747129	      0.12912148	      0.02262209	      0.12682116	      0.00125081	      0.08051532
      0.28900083	    -11.18713374	     55.93722702	    -16.78371173	    181.81709551	      0.00001977	      0.15141407	      0.01128863	      0.09246136	      0.01128863	      0.08745957	      0.10768909	      0.12882359	      0.02260532	      0.12652128	      0.00121650	      0.08038955
      0.29155642	    -11.22867610	     56.39763692	    -15.72992306	    178.49955233	      0.00001968	      0.15155641	      0.01144926	      0.09262839	      0.01144926	      0.08762586	      0.10789549	      0.12852842	      0.02258633	      0.12622451	      0.00118420	      0.08026497
      0.29411202	    -11.26754332	     56.84957088	    -14.68978375	    175.18269537	      0.00001960	      0.15169684	      0.01160867	      0.09279316	      0.01160867	      0.08779128	      0.10808968	      0.12823608	      0.02256506	      0.12593096	      0.00115390	      0.08014164
      0.29734126	    -11.31288916	     57.40852993	    -13.39961049	    171.00730950	      0.00001950	      0.15187159	      0.01180832	      0.09299560	      0.01180832	      0.08799261	      0.10831684	      0.12787088	      0.02253481	      0.12556479	      0.00111843	      0.07998767
      0.30057050	    -11.35411162	     57.95403276	    -12.13482351	    166.84506950	      0.00001940	      0.15204321	      0.01200641	      0.09319318	      0.01200641	      0.08819259	      0.10852860	      0.12751055	      0.02250104	      0.12520409	      0.00108586	      0.07983587
      0.30333757	    -11.38621914	     58.41079946	    -11.07604062	    163.30454505	      0.00001932	      0.15218786	      0.01217423	      0.09335749	      0.01217423	      0.08835435	      0.10869760	      0.12720580	      0.02246902	      0.12489948	      0.00105990	      0.07970759
      0.30610463	    -11.41542546	     58.85779220	    -10.03750125	    159.77944939	      0.00001924	      0.15233030	      0.01234016	      0.09351831	      0.01234016	      0.08851641	      0.10885614	      0.12690485	      0.02243409	      0.12459909	      0.00103548	      0.07958105
      0.30960083	    -11.44827273	     59.40868060	     -8.75936601	    155.36450512	      0.00001915	      0.15250718	      0.01254778	      0.09371580	      0.01254778	      0.08871277	      0.10904499	      0.12653016	      0.02238604	      0.12422573	      0.00100668	      0.07942376
      0.31382927	    -11.48213002	     60.05444239	     -7.26266542	    150.07932944	      0.00001904	      0.15271633	      0.01279630	      0.09394652	      0.01279630	      0.08894725	      0.10925620	      0.12608553	      0.02232201	      0.12378357	      0.00097482	      0.07923750
      0.31654308	    -11.50057555	     60.45718439	     -6.33512787	    146.73472080	      0.00001897	      0.15284781	      0.01295469	      0.09408981	      0.01295469	      0.08908704	      0.10938413	      0.12580519	      0.02227771	      0.12350530	      0.00095595	      0.07912018
      0.31925690	    -11.51653477	     60.85088716	     -5.43048936	    143.41832870	      0.00001890	      0.15297729	      0.01311230	      0.09422964	      0.01311230	      0.08922724	      0.10950712	      0.12552883	      0.02223087	      0.12323140	      0.00093819	      0.07900478
      0.32444007	    -11.54034691	     61.57804329	     -3.77326806	    137.18669196	      0.00001878	      0.15321974	      0.01341137	      0.09448748	      0.01341137	      0.08948482	      0.10973058	      0.12501229	      0.02213423	      0.12272058	      0.00090698	      0.07878993
      0.32764367	    -11.55086043	     62.01146902	     -2.79641903	    133.41022445	      0.00001871	      0.15336402	      0.01359562	      0.09463973	      0.01359562	      0.08963723	      0.10986334	      0.12470051	      0.02207013	      0.12241297	      0.00088937	      0.07866029
      0.33162992	    -11.55966797	     62.53403781	     -1.63216698	    128.79024103	      0.00001862	      0.15354274	      0.01382519	      0.09482350	      0.01382519	      0.08982101	      0.11002436	      0.12432064	      0.02198591	      0.12203896	      0.00086926	      0.07850303
      0.33548535	    -11.56387889	     63.02211964	     -0.56121632	    124.41894634	      0.00001854	      0.15370727	      0.01404755	      0.09499432	      0.01404755	      0.08999177	      0.11017726	      0.12396180	      0.02190004	      0.12168648	      0.00085152	      0.07835495
      0.33934078	    -11.56406652	     63.49352827	      0.45434852	    120.13632982	      0.00001846	      0.15387584	      0.01427046	      0.09515884	      0.01427046	      0.09015631	      0.11032934	      0.12361141	      0.02180956	      0.12134310	      0.00083510	      0.07821087
      0.34242555	    -11.56146319	     63.85894080	      1.22768108	    116.78919852	      0.00001839	      0.15399888	      0.01444914	      0.09528595	      0.01444914	      0.09028339	      0.11045074	      0.12333717	      0.02173406	      0.12107492	      0.00082280	      0.07809844
      0.34551033	    -11.55652992	     64.21412258	      1.96477136	    113.50213423	      0.00001833	      0.15412653	      0.01462837	      0.09540918	      0.01462837	      0.09040662	      0.11057291	      0.12306834	      0.02165570	      0.12081253	      0.00081104	      0.07798858
      0.34951082	    -11.54684387	     64.65982928	      2.86777757	    109.34449002	      0.00001825	      0.15428332	      0.01486158	      0.09556337	      0.01486158	      0.09056081	      0.11073272	      0.12272775	      0.02154993	      0.12048087	      0.00079642	      0.07784991
      0.35351132	    -11.53366610	     65.08913546	      3.70969909	    105.29739889	      0.00001817	      0.15444428	      0.01509645	      0.09571136	      0.01509645	      0.09070879	      0.11089457	      0.12239621	      0.02143966	      0.12015884	      0.00078259	      0.07771547
      0.35636782	    -11.52225484	     65.38589083	      4.27491236	    102.48847333	      0.00001812	      0.15454711	      0.01526570	      0.09581334	      0.01526570	      0.09081078	      0.11101180	      0.12216497	      0.02135822	      0.11993474	      0.00077328	      0.07762201
      0.35922433	    -11.50927366	     65.67470368	      4.80882106	     99.73589695	      0.00001807	      0.15465496	      0.01544351	      0.09591235	      0.01544351	      0.09090980	      0.11112788	      0.12193828	      0.02127699	      0.11971547	      0.00077244	      0.07753069
      0.36336904	    -11.48782635	     66.07999063	      5.53000999	     95.85512052	      0.00001800	      0.15480432	      0.01587776	      0.09604894	      0.01587776	      0.09104645	      0.11124772	      0.12161750	      0.02121635	      0.11940529	      0.00103507	      0.07739945
      0.36708479	    -11.46616137	     66.42987253	      6.12239807	     92.48449053	      0.00001797	      0.15493901	      0.01642556	      0.09616370	      0.01642556	      0.09116143	      0.11131126	      0.12133820	      0.02126592	      0.11913420	      0.00153772	      0.07728161
